<?xml version="1.0" encoding="utf-8"?>
<!-- Generator: Adobe Illustrator 16.0.0, SVG Export Plug-In . SVG Version: 6.00 Build 0)  -->
<!DOCTYPE svg PUBLIC "-//W3C//DTD SVG 1.1//EN" "http://www.w3.org/Graphics/SVG/1.1/DTD/svg11.dtd">
<svg version="1.1" id="Livello_1" xmlns="http://www.w3.org/2000/svg" xmlns:xlink="http://www.w3.org/1999/xlink" x="0px" y="0px"
	 width="595.28px" height="595.28px" viewBox="0 0 595.28 595.28" enable-background="new 0 0 595.28 595.28" xml:space="preserve">
<path fill="#FFFFFF" d="M506.609,157.957L321.621,51.166c-11.266-6.505-29.706-6.505-40.976,0L95.666,157.957
	c-11.265,6.514-20.492,22.481-20.492,35.494v208.382c0,13.016,9.227,28.988,20.492,35.484l184.979,106.799
	c11.27,6.504,29.71,6.504,40.976,0l184.988-106.799c11.266-6.514,20.492-22.479,20.492-35.488V193.45
	C527.102,180.438,517.875,164.471,506.609,157.957z M387.965,345.914c-9.613,8.248-24.173,7.922-33.27-1.17l-33.47-28.826
	c-9.549-9.547-25.174-9.549-34.717-0.002l-28.237,28.236c-9.541,9.547-24.831,9.889-33.965,0.748
	c-9.134-9.133-8.79-24.42,0.749-33.965l60.337-60.336c9.543-9.546,25.164-9.546,34.712,0l66.688,62.039
	C395.894,321.744,396.215,336.303,387.965,345.914z"/>
</svg>
